<svg xmlns="http://www.w3.org/2000/svg" viewBox="0 0 587.52 323.1"><defs><style>.cls-1{fill:#ff9801;}.cls-2{fill:#030405;}.cls-3{fill:#040506;}.cls-4{fill:#08090a;}</style></defs><title>jspec</title><g id="Calque_2" data-name="Calque 2"><path d="M44.31,273.78H33.93v-2.37c0-4.89,2-11.53,5.89-18.16h7.12a60.66,60.66,0,0,0-2.63,18.16Z"/><path d="M54.22,304.91l-.62-8.85c4.57,1.66,9.84,3.32,15.26,3.32,6.58,0,9.53-2.84,9.53-7.43,0-4.82-3.41-5.84-11.23-9.24C58.33,279,52.91,275.6,52.91,267c0-9.95,7-14.53,17.73-14.53a44.31,44.31,0,0,1,15.57,3l.62,8.77a48.76,48.76,0,0,0-15.49-3.08c-5.19,0-8.13,1.73-8.13,5.45,0,4.58,4.33,5.76,11.77,9,9.14,3.95,13.79,7.43,13.79,16,0,11.29-7.59,16.43-18.75,16.43A40.73,40.73,0,0,1,54.22,304.91Z"/><path d="M95,292.9V267.78h9.53v24c0,5.68,2.24,8.37,6.5,8.37s8.06-2.77,10.92-6.95V267.78h9.53v39.5H122V301h-.15c-2.87,3.55-7.29,7.11-13.71,7.11C100.23,308.07,95,302.62,95,292.9Z"/><path d="M140.58,255.77a5.89,5.89,0,1,1,5.88,5.85A5.74,5.74,0,0,1,140.58,255.77Zm1.16,12h9.52v39.5h-9.52Z"/><path d="M159.78,305.54l-.46-6.87a43.31,43.31,0,0,0,12.62,2.45c5.11,0,6.74-2,6.74-4.9,0-3.63-2.56-4.42-8.13-6.48-7.44-2.61-11.77-5.29-11.77-11.69,0-7.43,5.65-11.06,14.71-11.06a35.24,35.24,0,0,1,13.4,2.61l.47,6.71a39.3,39.3,0,0,0-12.4-2.37c-4.72,0-6.35,1.42-6.35,3.87,0,2.69,1.94,3.48,8.52,5.93,8.06,3,11.47,5.76,11.47,12.32,0,8.85-6.12,12-15.34,12A34.82,34.82,0,0,1,159.78,305.54Z"/><path class="cls-1" d="M195.72,253.25h16.42c11.38,0,20.14,5.29,20.14,17.22s-8.91,17.45-20.14,17.45h-6.43v19.36h-10Zm16.5,26.14c6.42,0,9.83-3.24,9.83-8.84s-3.41-8.85-9.83-8.85h-6.51v17.69Z"/><path class="cls-1" d="M234.21,296c0-7.34,5-11.22,12.86-12.16l8.36-1.11c1.78-.24,3.1-.79,3.1-3.47,0-3.56-2.25-5.22-7.9-5.22a43,43,0,0,0-13.09,2.45l.85-6.79a39.72,39.72,0,0,1,14.1-2.69c10.53,0,15.57,4.74,15.57,13.9v26.39h-9.3v-4.19h-.15a15,15,0,0,1-11.47,5.14C239.86,308.23,234.21,303.72,234.21,296Zm24.4-2.29v-6A3.7,3.7,0,0,1,256,289l-6.19.71c-4.11.48-6.2,2.29-6.2,5.93,0,4,2.48,6.24,6.35,6.24C254,301.83,258.61,299.38,258.61,293.69Z"/><path class="cls-1" d="M274.79,305.54l-.46-6.87A43.31,43.31,0,0,0,287,301.12c5.11,0,6.74-2,6.74-4.9,0-3.63-2.56-4.42-8.13-6.48-7.44-2.61-11.78-5.29-11.78-11.69,0-7.43,5.66-11.06,14.72-11.06a35.24,35.24,0,0,1,13.4,2.61l.47,6.71a39.3,39.3,0,0,0-12.4-2.37c-4.72,0-6.35,1.42-6.35,3.87,0,2.69,1.94,3.48,8.52,5.93,8.06,3,11.46,5.76,11.46,12.32,0,8.85-6.11,12-15.33,12A34.82,34.82,0,0,1,274.79,305.54Z"/><path d="M310,253.25h35.78v8.37H320v14.77h23.55v7.9H320V298.9h25.79v8.38H310Z"/><path d="M354.33,267.78h9.45v6.32h.15c2.87-3.24,7.05-7.11,14-7.11,8.13,0,12.86,5.06,12.86,15.17v25.12h-9.53v-24c0-5.68-2.17-8.37-6.5-8.37s-8.06,2.77-10.92,6.95v25.44h-9.53Z"/><path class="cls-1" d="M397,280.5c0-22.51,11.77-28,23.7-28,5.81,0,11.54,1.18,15.49,3.16l.62,8.84A40.61,40.61,0,0,0,422,261.15c-9.22,0-14.33,4.66-14.33,19.19s5.11,19.2,14.25,19.2a40.63,40.63,0,0,0,15.18-3.48l-.7,8.53a35.53,35.53,0,0,1-16.18,3.64C407.92,308.23,397,302.14,397,280.5Z"/><path class="cls-1" d="M440.22,287.53c0-14.69,8.13-20.78,18.9-20.78s19,6.09,19,20.78-8.13,20.93-19,20.93S440.22,302.22,440.22,287.53Zm28,0c0-9-2.25-13.19-9.06-13.19s-9,4.18-9,13.19,2.25,13.35,9,13.35S468.18,296.54,468.18,287.53Z"/><path class="cls-1" d="M484.21,292.9V267.78h9.52v24c0,5.68,2.25,8.37,6.51,8.37s8.05-2.77,10.92-6.95V267.78h9.53v39.5h-9.45V301h-.16c-2.86,3.55-7.28,7.11-13.71,7.11C489.47,308.07,484.21,302.62,484.21,292.9Z"/><path class="cls-1" d="M529.67,267.78H539v6h.16A10,10,0,0,1,549,267a15,15,0,0,1,4.8.79l.62,7.66a29.42,29.42,0,0,0-4.72-.55c-6.82,0-10.53,4.66-10.53,11.93v20.46h-9.53Z"/><path class="cls-1" d="M558,305.54l-.46-6.87a43.31,43.31,0,0,0,12.62,2.45c5.12,0,6.74-2,6.74-4.9,0-3.63-2.55-4.42-8.13-6.48-7.44-2.61-11.77-5.29-11.77-11.69,0-7.43,5.65-11.06,14.71-11.06a35.24,35.24,0,0,1,13.4,2.61l.47,6.71a39.3,39.3,0,0,0-12.4-2.37c-4.72,0-6.35,1.42-6.35,3.87,0,2.69,1.94,3.48,8.52,5.93,8.06,3,11.47,5.76,11.47,12.32,0,8.85-6.12,12-15.34,12A34.82,34.82,0,0,1,558,305.54Z"/><path d="M3.26,320.63l-.55-10a13.2,13.2,0,0,0,5.12.94c5.5,0,8.28-3.31,8.28-12.87V256.1h10v43.71c0,13.72-5.19,22.14-16.58,22.14A14.66,14.66,0,0,1,3.26,320.63Z"/></g><g id="Calque_1" data-name="Calque 1"><path class="cls-2" d="M315.94,196.49c-.52-3.72-3.59-3.72-6.63-3.34a14.42,14.42,0,0,1-15-8.23c-.67-1.35-1.81-3.32-2.94-3.47-5.84-.76-11.94-2.16-17.61-1.25-22.81,3.65-45.5,8.06-68.24,12.19q-47.37,8.63-94.73,17.23c-7.31,1.32-9.88-.53-11.53-7.94C94.41,180.1,89.53,158.54,84.81,137c-5.11-23.39-10.07-46.8-15.12-70.2-.68-3.15.23-5.22,3.55-5.92,1.63-.34,3.24-.75,4.87-1q54.74-9.95,109.46-19.84c25.86-4.64,51.75-9,77.6-13.67,3.7-.67,5.29.7,6,4,.81,3.72,1.65,7.43,2.63,11.83,3.17-.84,5.9-1.51,8.59-2.28,4.28-1.23,10.64-1.32,12.23-4.11,1.82-3.19-.4-8.85-1.29-13.35a41.15,41.15,0,0,0-3-9.44C286.8,5.44,280.9,1.41,272.47,1.66a61.93,61.93,0,0,0-8.93.73q-45.66,8.16-91.29,16.48Q115.34,29.28,58.48,39.92c-12.9,2.42-19,10.68-17.16,23.61,1.54,10.51,3.9,20.91,6.2,31.29q13.8,62.31,27.9,124.57a46.07,46.07,0,0,0,5.2,12.82c3.18,5.42,8.38,8.24,14.78,7.14,18.51-3.19,37-6.67,55.48-10q52.29-9.36,104.59-18.66c18.33-3.27,36.67-6.51,55-9.92C312.81,200.35,316.47,200.35,315.94,196.49Z"/><path class="cls-1" d="M364.72,114.42c5.34-1.51,10.92-2.45,16-4.62,22.59-9.67,45-19.71,67.54-29.56C455.68,77,463,72,470.74,71.3c7.13-.62,14.75,3.24,21.94,5.75,1.09.38,1.67,4.24,1.34,6.31-4.28,27.14-12.3,53.35-20.87,79.35-5.37,16.3-9.38,18.74-25.88,14-18.44-5.31-36.52-3-54.79-.49s-35.64-.22-52.92-7.79c-15.36-6.72-30.75-13.13-45-22-9.64-4.41-15.79-11.25-15.6-22.48,5.17-9.83,14.76-12,24.41-14,2.91-.59,5.9-.8,8.85-1.18,11.13,1.38,22.25,2.86,33.4,4.11C352,113.58,358.35,113.91,364.72,114.42Z"/><path class="cls-1" d="M419.11,43.56c-9,5.21-16.91,10.29-25.29,14.45-6,3-12.29,4.68-14.2,12.49-.53,2.17-3.72,4.27-6.15,5.3-11.77,5-23.53,10.11-35.65,14.07-6.5,2.12-13.73,2-20.64,2.88-15.3,1.9-28.61,8.21-38.53,19.92-9.53,11.22-22.1,17.24-34.81,23.36a18.73,18.73,0,0,1-2.73.69c3.64-16.49,7.09-32.34,10.66-48.17,2.11-9.4,4.45-18.74,6.61-28.13,1.64-7.11,6-11,13.15-12.57,26.45-5.73,52.93-11.32,79.25-17.6C375,24.48,396.86,29.49,419.11,43.56Z"/><path class="cls-2" d="M217.72,160.42c-4.45,8.13,1,10.32,3.72,10.59,8.91.47,17.76-.33,26.26-3.88,15.76-6.58,31.25-13.8,46.86-20.74-9.64-4.41-15.79-11.25-15.6-22.48q-17.19,7.82-34.4,15.64c-10.58,4.84-20,11.19-26.84,20.87"/><path class="cls-1" d="M505.8,197.74q-12.41,0-24.81,0c-3.85,0-6.83-3.56-6.45-8.47a59.32,59.32,0,0,1,2-10.25q11.22-42.87,22.59-85.71,1.39-5.29,3.16-10.48c1.87-5.46,4.56-7.56,10.12-6.48a239.77,239.77,0,0,1,27,6.53c8.16,2.6,10.6,7.77,8.25,16-3.44,12-7.18,23.85-11,35.7-4.29,13.27-8.7,26.51-13.33,39.67-2,5.77-4.91,11.24-7,17C514.46,196.34,510.67,197.72,505.8,197.74Z"/><path class="cls-2" d="M364.72,114.42c-6.37-.51-12.75-.84-19.1-1.55-11.15-1.25-22.27-2.73-33.4-4.11l69-31.85c1.65-.76,3.31-1.5,5-2.27-4.43-5.11-3.73-7.49,3.38-10.85C405.07,56.48,420.56,49.27,436,42c1.95-.92,4.1-1.53,5.83-2.76,10.48-7.46,22.35-6.18,34.08-5.41,1.69.11,3.64,1.52,4.83,2.88,3.05,3.51,5.76,7.32,8.56,11,5.16,6.85,5.05,7.3-2.94,10.95q-51.34,23.51-102.69,47Q374.2,110,364.72,114.42Zm83.57-65.18-.74-2.3c-15.21,5.6-29.64,13.05-44.3,20C419.86,65,433.1,54.7,448.29,49.24Z"/><path class="cls-1" d="M280.64,171.16c-7.74,5.7-11.69,5-19.56-4.65,6.54-3,13.12-5.52,19.21-8.92s11.09-2.66,17,.92c7.3,4.44,15.33,7.7,23.09,11.37,3.6,1.7,4.19,7,1.07,10.7-5.38,6.37-19.76,5.19-23.56-2.19-1.34-2.62-2.84-3.4-5.61-3.81C288.55,174,285,172.5,280.64,171.16Z"/><path class="cls-3" d="M221.2,50.6c-4.9.16-8-.94-8.64-5-.72-4.24,1.9-6.75,5.64-7.52,7.31-1.51,14.7-2.7,22.09-3.72,3.86-.53,7.57.12,8.1,5.08.48,4.56-2.2,6.6-6.34,7.33C234.7,48.1,227.37,49.47,221.2,50.6Z"/><path class="cls-4" d="M261.5,30.25c4.45.14,6.93,1.83,7.05,5.91s-1.91,6.26-5.85,6.44-6.2-1.91-6.41-5.87S258.31,30.75,261.5,30.25Z"/></g><g id="Calque_3" data-name="Calque 3"><path d="M241.49,89.9c-1-2.36-2-4.73-3-7.08-.46-1.06-1-2.1-1.54-3.11a4,4,0,0,0-2.76-2.12c-.44-.09-.42-.41-.47-.71l-2.46-13.17c-.06-.35-.13-.7-.22-1.05a3.62,3.62,0,0,0-3.79-3.12,35.25,35.25,0,0,0-3.84.18,5.38,5.38,0,0,0-3.77,2.43,12.13,12.13,0,0,0-2.5,10q2.46,13.13,4.9,26.27a9.75,9.75,0,0,0,.44,1.71c.67,1.74,2.06,2.49,4.34,2.42.52,0,1.16-.21,1.53,0s.33.91.51,1.37c.3.76.65,1.51.93,2.28a1.58,1.58,0,0,1,0,.89q-3.65,13-7.33,25.92l-2.72,9.59c-.06.22-.14.43-.22.71l-5.35-1.8q-20.24-6.83-40.48-13.64a14.47,14.47,0,0,0-5.63-.5c-9.29.68-16,5.23-20.18,13.56a1.33,1.33,0,0,1-.47.55L128.31,152l-.33.15c0-.91,0-1.78,0-2.64q-.11-12.27-.22-24.55a.8.8,0,0,1,.46-.84,9.31,9.31,0,0,0,3.14-3.48c.5-.78,1-1.57,1.44-2.38a.71.71,0,0,1,.78-.45,1.81,1.81,0,0,0,1.54-.74,3.17,3.17,0,0,0-.58-4.8,2.35,2.35,0,0,1-1.11-1.39,2,2,0,0,1,0-1.12c1.66-4.07,3.36-8.13,5-12.19a1.8,1.8,0,0,0-.28-2.06,1.74,1.74,0,0,0-1.9-.52A2,2,0,0,0,135,96.16q-2.17,4.44-4.39,8.89a1.12,1.12,0,0,1-.36.47c0-.21,0-.42.07-.63.5-3.67,1-7.33,1.5-11a1.82,1.82,0,0,0-2.29-2.16,1.88,1.88,0,0,0-1.34,1.6c-.62,3-1.25,6-1.88,9.07a20,20,0,0,1-.62,2.42,7.57,7.57,0,0,0-.22-1.36,1.25,1.25,0,0,0-.62-.74,3.22,3.22,0,0,0-3.33.76,2.13,2.13,0,0,1-.9.36c-.57.15-1.15.24-1.71.42a.78.78,0,0,0-.58,1c.14.81.15,1.65.33,2.44.46,2-.14,4-.06,6s.26,4,.41,6a2.29,2.29,0,0,0,.21.91,3.34,3.34,0,0,1,.16,2.37q-4.08,21.37-8.13,42.75a5.21,5.21,0,0,0,.91,3.65,9.47,9.47,0,0,0,8.34,4.93,4.52,4.52,0,0,0,1.82-.45q12.78-5.64,25.55-11.32a2.26,2.26,0,0,1,.35-.1q1,2.11,2,4.21,7.78,16.55,15.58,33.1a.68.68,0,0,0,.89.48l47.15-8.79.62-.11-16.87-36.21,1.92.49,24.74,6.59c3.66,1,6.35-.13,8.35-3.37a9.64,9.64,0,0,0,1.26-4.43q1.81-23.37,3.63-46.73a2.39,2.39,0,0,1,.66-1.53,15.34,15.34,0,0,0,3.57-8,47,47,0,0,0,.27-4.9l0-.43Z"/><path d="M127.68,89.28a4.87,4.87,0,0,1,7,3.06l.59-.16a4.77,4.77,0,0,1,5.84,6.45c-1.44,3.51-2.9,7-4.35,10.5-.09.19-.16.39-.24.57,2.89,3.22,3.06,5.92.61,9.48a26,26,0,0,0,28.49,1.13,26.1,26.1,0,0,0-14.51-48.42A25.88,25.88,0,0,0,127.68,89.28Z"/></g></svg>